<svg width="45" height="45" viewBox="0 0 45 45" fill="none" xmlns="http://www.w3.org/2000/svg">
<path d="M0.503326 22.1239L0.503325 22.124C0.388015 28.8615 3.32251 34.932 8.02794 39.0482C8.28161 38.8502 8.55392 38.665 8.84972 38.5039L0.503326 22.1239ZM0.503326 22.1239C0.710872 9.97581 10.7279 0.295791 22.8761 0.503339C35.0251 0.710886 44.7042 10.7279 44.495 22.876V22.8761C44.3837 29.3858 41.4527 35.1824 36.8883 39.1333C36.5966 38.9139 36.2825 38.7127 35.9417 38.5423L35.7181 38.9895L35.9417 38.5423L28.7527 34.9483L28.7524 34.9481C27.9935 34.5693 27.5136 33.7926 27.5136 32.9434V30.3076C27.6967 30.0885 27.8951 29.8291 28.1017 29.5372L28.1018 29.5372C29.0648 28.1769 29.8031 26.6891 30.3275 25.1315C31.3187 24.7173 32.0297 23.7449 32.0297 22.5968V19.5861C32.0297 18.855 31.7382 18.1977 31.2775 17.7082V13.5941C31.2791 13.5783 31.2812 13.5577 31.2834 13.5326C31.2884 13.4751 31.2941 13.3938 31.2976 13.292C31.3048 13.0887 31.3037 12.8024 31.2717 12.4605C31.2078 11.7787 31.0196 10.8617 30.5169 9.93961C29.4881 8.05233 27.2269 6.29247 22.4991 6.29247C17.7714 6.29247 15.5102 8.05233 14.4814 9.93961C13.9787 10.8617 13.7905 11.7787 13.7267 12.4605C13.6946 12.8024 13.6935 13.0887 13.7007 13.292C13.7042 13.3938 13.7099 13.4751 13.7149 13.5326C13.7171 13.5577 13.7192 13.5783 13.7208 13.5941V17.7084C13.261 18.1976 12.9686 18.8547 12.9686 19.5861V22.5968C12.9686 23.4957 13.4053 24.2891 14.0668 24.7908C14.4648 26.4121 15.1402 27.7991 15.7212 28.7883C16.0236 29.303 16.3023 29.7132 16.5066 29.9961C16.5978 30.1224 16.6743 30.2236 16.7316 30.2975V32.8738C16.7316 33.6942 16.2832 34.449 15.5631 34.842L8.85 38.5038L0.503326 22.1239Z" fill="#006D8F" stroke="white"/>
<path d="M16.0429 35.719L16.0431 35.7189C17.0838 35.1509 17.7323 34.0599 17.7333 32.8751V32.8747V30.1237V29.9423L17.6172 29.8034L17.6172 29.8033L17.6171 29.8032L17.617 29.8031L17.6168 29.8029L17.6138 29.7992L17.5998 29.782C17.5869 29.7661 17.5671 29.7414 17.5413 29.7083C17.4896 29.6421 17.4135 29.5422 17.3192 29.4116C17.1306 29.1503 16.8697 28.7665 16.5855 28.2827C16.0158 27.3126 15.3599 25.9529 14.9986 24.38L14.9531 24.1822L14.7826 24.072C14.2922 23.755 13.9703 23.2107 13.9703 22.5977V19.5869C13.9703 19.0771 14.1957 18.6167 14.5578 18.2895L14.7226 18.1406V17.9185V13.5663V13.5334L14.7185 13.5022C14.7185 13.5022 14.7185 13.5022 14.7184 13.5022C14.7184 13.5021 14.7184 13.5018 14.7184 13.5018C14.7184 13.5017 14.7184 13.5016 14.7183 13.5014C14.7183 13.5013 14.7183 13.5013 14.7183 13.5012L14.7173 13.4921C14.7163 13.483 14.7147 13.4678 14.7129 13.4469C14.7093 13.4052 14.7047 13.341 14.7018 13.2576C14.6959 13.0905 14.6966 12.8477 14.724 12.5546C14.7791 11.9665 14.9407 11.1903 15.3611 10.4191C16.1783 8.91994 18.0563 7.29333 22.5009 7.29333C26.9455 7.29333 28.8234 8.91994 29.6407 10.4191C30.061 11.1903 30.2226 11.9665 30.2777 12.5546C30.3052 12.8477 30.3059 13.0905 30.3 13.2576C30.297 13.341 30.2925 13.4052 30.2889 13.4469C30.287 13.4678 30.2855 13.483 30.2845 13.4921L30.2835 13.5008L30.2834 13.5012L30.2834 13.5014L30.2833 13.5018L30.2833 13.5022L30.2792 13.5334V13.5663V17.9185V18.1403L30.4436 18.2892C30.8055 18.6168 31.0314 19.0775 31.0314 19.5869V22.5977C31.0314 23.3787 30.5066 24.0447 29.7827 24.268L29.5339 24.3448L29.4541 24.5927C28.955 26.1445 28.2358 27.6205 27.2873 28.9603C27.0475 29.2989 26.8274 29.58 26.6396 29.7938L26.5153 29.9353V30.1237V32.9443C26.5153 34.1721 27.209 35.2944 28.3073 35.8436L28.3073 35.8436L35.4963 39.4376L35.4969 39.438C35.7054 39.5418 35.9047 39.6614 36.0966 39.7937C32.3534 42.7404 27.6333 44.5 22.5 44.5C17.3211 44.5 12.5641 42.7085 8.80639 39.713C8.97439 39.5913 9.14802 39.4799 9.32939 39.381L9.32946 39.381L16.0429 35.719Z" fill="#E7ECED" stroke="white"/>
</svg>
