<svg width="50" height="50" viewBox="0 0 50 50" fill="none" xmlns="http://www.w3.org/2000/svg">
<g clip-path="url(#clip0)">
<path d="M22.9326 21.095H27.2634" stroke="white" stroke-width="2" stroke-miterlimit="10" stroke-linecap="round"/>
<path d="M27.5704 49.5312H9.25835C8.18731 49.5336 7.15899 49.0956 6.39846 48.3132C5.63793 47.5308 5.20714 46.4676 5.20038 45.3564V25.3051C5.19876 25.008 5.22734 24.7116 5.28563 24.4207" stroke="white" stroke-width="2" stroke-miterlimit="10" stroke-linecap="round"/>
<path d="M32.0886 49.5578H30.5626" stroke="white" stroke-width="2" stroke-miterlimit="10" stroke-linecap="round"/>
<path d="M40.665 38.9174V45.3919C40.6495 46.4877 40.2218 47.5339 39.4732 48.3073C38.7247 49.0806 37.7145 49.5198 36.6582 49.5313H34.9531" stroke="white" stroke-width="2" stroke-miterlimit="10" stroke-linecap="round"/>
<path d="M40.6649 34.5657V36.9804" stroke="white" stroke-width="2" stroke-miterlimit="10" stroke-linecap="round"/>
<path d="M40.6649 26.3135V33.0179" stroke="white" stroke-width="2" stroke-miterlimit="10" stroke-linecap="round"/>
<path d="M40.6649 40.9783L45.618 43.5521C45.9752 43.744 46.374 43.837 46.776 43.822C47.1779 43.8071 47.5693 43.6847 47.9123 43.4668C48.2553 43.2488 48.5382 42.9427 48.7337 42.578C48.9292 42.2133 49.0306 41.8024 49.0281 41.3851V29.2677C49.0306 28.8504 48.9292 28.4395 48.7337 28.0749C48.5382 27.7102 48.2553 27.404 47.9123 27.1861C47.5693 26.9681 47.1779 26.8457 46.776 26.8308C46.374 26.8158 45.9752 26.9088 45.618 27.1007L40.6649 29.6745" stroke="white" stroke-width="2" stroke-miterlimit="10" stroke-linecap="round"/>
<path d="M12.2336 24.9425C18.7546 24.9425 24.0409 19.458 24.0409 12.6924C24.0409 5.92683 18.7546 0.442261 12.2336 0.442261C5.71259 0.442261 0.42627 5.92683 0.42627 12.6924C0.42627 19.458 5.71259 24.9425 12.2336 24.9425Z" stroke="white" stroke-width="2" stroke-linecap="round" stroke-linejoin="round"/>
<path d="M12.2336 18.3177C15.2281 18.3177 17.6556 15.7992 17.6556 12.6924C17.6556 9.58562 15.2281 7.06708 12.2336 7.06708C9.23916 7.06708 6.81165 9.58562 6.81165 12.6924C6.81165 15.7992 9.23916 18.3177 12.2336 18.3177Z" stroke="white" stroke-width="2" stroke-linecap="round" stroke-linejoin="round"/>
<path d="M12.2336 3.90942C14.4811 3.90942 16.6365 4.8357 18.2257 6.48448C19.8148 8.13326 20.7076 10.3695 20.7076 12.7012" stroke="white" stroke-width="2" stroke-linecap="round" stroke-linejoin="round"/>
<path d="M12.2336 21.4842C9.9862 21.4842 7.8308 20.5579 6.24162 18.9091C4.65244 17.2603 3.75964 15.0241 3.75964 12.6924" stroke="white" stroke-width="2" stroke-linecap="round" stroke-linejoin="round"/>
<path d="M37.7664 24.9425C44.2874 24.9425 49.5738 19.458 49.5738 12.6924C49.5738 5.92683 44.2874 0.442261 37.7664 0.442261C31.2454 0.442261 25.9591 5.92683 25.9591 12.6924C25.9591 19.458 31.2454 24.9425 37.7664 24.9425Z" stroke="white" stroke-width="2" stroke-linecap="round" stroke-linejoin="round"/>
<path d="M37.7665 18.3177C40.761 18.3177 43.1885 15.7992 43.1885 12.6924C43.1885 9.58562 40.761 7.06708 37.7665 7.06708C34.772 7.06708 32.3445 9.58562 32.3445 12.6924C32.3445 15.7992 34.772 18.3177 37.7665 18.3177Z" stroke="white" stroke-width="2" stroke-linecap="round" stroke-linejoin="round"/>
<path d="M37.7665 3.90942C40.0139 3.90942 42.1693 4.8357 43.7585 6.48448C45.3477 8.13326 46.2405 10.3695 46.2405 12.7012" stroke="white" stroke-width="2" stroke-linecap="round" stroke-linejoin="round"/>
<path d="M37.7665 21.4842C35.519 21.4842 33.3636 20.5579 31.7745 18.9091C30.1853 17.2603 29.2925 15.0241 29.2925 12.6924" stroke="white" stroke-width="2" stroke-linecap="round" stroke-linejoin="round"/>
<path d="M22.9326 31.9653H27.2634" stroke="white" stroke-width="2" stroke-miterlimit="10" stroke-linecap="round"/>
<path d="M17.6556 31.9653H20.7076" stroke="white" stroke-width="2" stroke-miterlimit="10" stroke-linecap="round"/>
<path d="M12.2848 31.9653H15.3027" stroke="white" stroke-width="2" stroke-miterlimit="10" stroke-linecap="round"/>
<path d="M9.26685 31.9653H10.7758" stroke="white" stroke-width="2" stroke-miterlimit="10" stroke-linecap="round"/>
<path d="M10.3495 38.8732C11.0134 38.8732 11.5516 38.3148 11.5516 37.626C11.5516 36.9373 11.0134 36.3789 10.3495 36.3789C9.68564 36.3789 9.14746 36.9373 9.14746 37.626C9.14746 38.3148 9.68564 38.8732 10.3495 38.8732Z" stroke="white" stroke-width="2" stroke-miterlimit="10" stroke-linecap="round"/>
<path d="M14.1262 38.8732C14.7901 38.8732 15.3283 38.3148 15.3283 37.626C15.3283 36.9373 14.7901 36.3789 14.1262 36.3789C13.4624 36.3789 12.9242 36.9373 12.9242 37.626C12.9242 38.3148 13.4624 38.8732 14.1262 38.8732Z" stroke="white" stroke-width="2" stroke-miterlimit="10" stroke-linecap="round"/>
</g>
<defs>
<clipPath id="clip0">
<rect width="50" height="50" fill="white"/>
</clipPath>
</defs>
</svg>
